<?xml version="1.0" encoding="UTF-8" ?>
<!DOCTYPE svg PUBLIC "-//W3C//DTD SVG 1.1//EN" "http://www.w3.org/Graphics/SVG/1.1/DTD/svg11.dtd">
<svg width="1193pt" height="296pt" viewBox="0 0 1193 296" version="1.1" xmlns="http://www.w3.org/2000/svg">
<g id="#111111fd">
<path fill="#111111" opacity="1.00" d=" M 67.19 0.00 L 209.37 0.00 C 203.73 15.67 199.13 31.69 194.45 47.66 C 168.68 48.27 142.90 47.90 117.12 48.05 C 113.71 59.35 110.02 70.57 106.73 81.91 C 132.25 82.10 157.77 81.91 183.29 82.09 C 178.93 98.17 173.35 113.90 168.68 129.89 C 143.12 130.07 117.56 129.97 92.00 130.03 C 87.65 141.80 83.90 153.80 80.58 165.90 C 105.99 166.16 131.40 165.69 156.81 166.36 C 152.33 182.73 146.92 198.82 141.85 215.01 C 122.57 214.35 103.29 213.74 84.00 213.97 C 56.00 214.26 27.96 213.20 0.00 215.04 L 0.00 212.55 C 18.68 154.15 36.65 95.51 55.00 37.00 C 59.02 24.65 62.23 12.03 67.19 0.00 Z" />
<path fill="#111111" opacity="1.00" d=" M 224.17 0.00 L 289.57 0.00 C 271.93 55.18 254.85 110.56 237.74 165.92 C 263.44 166.15 289.14 165.67 314.84 166.37 C 310.30 182.25 304.96 197.88 300.39 213.75 C 252.54 214.57 204.66 213.11 156.83 215.03 C 174.50 156.91 192.88 99.00 211.01 41.01 C 215.29 27.31 219.03 13.42 224.17 0.00 Z" />
<path fill="#111111" opacity="1.00" d=" M 382.17 0.00 L 524.31 0.00 C 518.98 15.59 514.74 31.54 509.26 47.09 C 483.71 46.98 458.15 46.76 432.61 47.35 C 428.95 58.86 425.20 70.34 421.85 81.95 C 447.51 82.13 473.17 81.68 498.83 82.38 C 494.03 98.30 489.06 114.17 484.01 130.01 C 458.20 130.05 432.38 129.74 406.57 130.34 C 402.96 142.20 399.10 153.99 395.70 165.91 C 421.13 166.15 446.58 165.65 472.01 166.40 C 467.54 182.36 462.00 198.00 457.74 214.02 C 450.67 214.34 443.59 214.57 436.52 214.41 C 395.99 213.54 355.45 214.26 314.92 213.94 C 333.18 155.52 351.29 97.06 369.68 38.68 C 373.80 25.77 377.29 12.65 382.17 0.00 Z" />
<path fill="#111111" opacity="1.00" d=" M 541.47 0.00 L 600.33 0.00 C 586.12 43.93 572.94 88.20 559.02 132.23 C 594.84 88.64 629.32 43.95 664.71 0.00 L 724.47 0.00 C 668.09 71.15 612.11 142.65 555.89 213.95 C 528.32 214.12 500.74 213.61 473.19 214.68 C 483.91 179.37 495.15 144.23 505.79 108.89 C 517.43 72.53 527.82 35.68 541.47 0.00 Z" />
<path fill="#111111" opacity="1.00" d=" M 823.76 0.00 L 1036.14 0.00 C 1029.93 15.68 1026.10 32.21 1020.33 48.05 C 1002.63 47.99 984.93 47.96 967.25 48.06 C 949.87 103.22 932.66 158.44 915.47 213.65 C 893.62 214.20 871.76 214.07 849.91 213.93 C 866.65 158.53 884.63 103.50 901.31 48.09 C 877.58 47.94 853.85 48.04 830.13 47.94 C 827.55 32.03 825.42 16.04 823.76 0.00 Z" />
<path fill="#111111" opacity="1.00" d=" M 1050.17 0.00 L 1192.46 0.00 C 1187.44 16.03 1182.67 32.15 1177.21 48.04 C 1151.58 47.98 1125.95 47.94 1100.33 48.10 C 1097.09 59.45 1093.50 70.69 1089.88 81.92 C 1115.37 82.09 1140.87 81.89 1166.37 82.11 C 1162.17 98.24 1156.78 114.02 1151.89 129.95 C 1126.31 130.05 1100.73 129.93 1075.15 130.09 C 1071.18 141.98 1067.44 153.94 1063.85 165.94 C 1089.36 166.07 1114.88 165.90 1140.41 166.10 C 1135.86 182.60 1130.42 198.84 1125.03 215.07 C 1077.76 213.03 1030.44 214.27 983.16 214.71 C 990.16 190.46 998.11 166.49 1005.51 142.36 C 1020.52 94.94 1034.88 47.31 1050.17 0.00 Z" />
<path fill="#111111" opacity="1.00" d=" M 537.44 239.46 C 543.61 237.75 549.39 240.69 554.84 243.08 C 552.80 245.74 550.72 248.36 548.63 250.98 C 545.11 248.80 541.29 246.81 537.00 247.02 C 527.81 248.51 520.72 260.08 525.29 268.70 C 530.02 274.96 538.87 270.81 544.34 267.75 C 545.43 269.76 546.49 271.79 547.51 273.85 C 539.53 278.75 528.53 283.24 520.05 276.92 C 514.03 273.65 514.82 265.82 515.18 260.12 C 517.66 249.75 526.65 240.70 537.44 239.46 Z" />
<path fill="#111111" opacity="1.00" d=" M 632.44 239.44 C 638.90 237.73 645.29 240.68 650.54 244.26 C 648.15 246.44 645.81 248.65 643.42 250.83 C 638.71 247.62 632.06 245.04 626.97 248.97 C 618.48 253.64 616.55 265.50 622.56 272.94 C 626.49 271.91 630.91 272.34 634.71 270.66 C 636.86 269.22 637.45 266.49 638.62 264.32 C 635.31 264.12 632.36 264.08 629.14 263.93 C 629.88 261.66 630.62 259.39 631.34 257.11 C 636.95 257.06 642.58 257.03 648.22 257.04 C 646.69 262.55 646.01 268.40 643.41 273.54 C 637.73 278.70 629.56 280.29 622.12 279.86 C 615.65 278.74 608.90 274.03 609.29 266.69 C 609.16 253.64 619.50 241.40 632.44 239.44 Z" />
<path fill="#111111" opacity="1.00" d=" M 1001.43 239.46 C 1007.21 237.97 1013.14 239.77 1017.86 243.16 C 1026.67 254.75 1018.27 271.90 1006.04 277.04 C 997.90 281.55 985.54 281.53 980.29 272.70 C 974.21 257.98 986.68 241.59 1001.43 239.46 M 1000.43 247.44 C 991.51 248.84 985.34 259.64 988.93 268.06 C 990.80 271.85 995.77 272.89 999.57 271.57 C 1008.41 269.99 1014.97 259.47 1011.07 250.94 C 1009.21 247.15 1004.19 246.11 1000.43 247.44 Z" />
<path fill="#111111" opacity="1.00" d=" M 1101.43 239.46 C 1107.21 237.97 1113.14 239.77 1117.86 243.16 C 1126.67 254.75 1118.26 271.90 1106.04 277.04 C 1097.90 281.55 1085.54 281.53 1080.29 272.70 C 1074.21 257.98 1086.68 241.59 1101.43 239.46 M 1100.43 247.44 C 1091.51 248.84 1085.34 259.64 1088.93 268.06 C 1090.80 271.85 1095.77 272.89 1099.57 271.57 C 1108.41 269.99 1114.97 259.47 1111.07 250.94 C 1109.21 247.15 1104.19 246.11 1100.43 247.44 Z" />
<path fill="#111111" opacity="1.00" d=" M 582.38 240.26 C 585.07 240.12 587.99 240.07 590.74 239.97 C 592.31 253.05 594.41 266.05 596.90 278.98 C 593.90 278.93 591.14 279.00 588.20 278.95 C 587.77 275.99 587.22 272.98 586.81 270.03 C 581.23 270.02 575.67 270.02 570.11 270.05 C 568.03 273.02 566.00 276.01 563.91 278.96 C 561.15 278.93 558.39 278.89 555.64 278.86 C 564.57 266.00 573.35 253.05 582.38 240.26 M 575.57 261.70 C 578.11 261.79 583.20 261.99 585.74 262.08 C 585.02 258.28 584.38 254.46 583.63 250.67 C 580.81 254.24 578.19 257.98 575.57 261.70 Z" />
<path fill="#111111" opacity="1.00" d=" M 679.38 240.26 C 682.05 240.12 684.99 240.07 687.74 239.97 C 689.31 253.05 691.41 266.05 693.90 278.98 C 690.88 278.93 688.15 279.00 685.20 278.95 C 684.77 275.99 684.22 272.98 683.81 270.03 C 678.23 270.02 672.67 270.02 667.11 270.05 C 665.02 273.02 663.00 276.01 660.91 278.96 C 658.14 278.93 655.39 278.89 652.64 278.86 C 661.57 266.00 670.35 253.05 679.38 240.26 M 672.57 261.70 C 675.11 261.79 680.20 261.99 682.74 262.08 C 682.01 258.28 681.38 254.46 680.63 250.67 C 677.81 254.24 675.19 257.98 672.57 261.70 Z" />
<path fill="#111111" opacity="1.00" d=" M 705.93 239.53 C 708.36 239.78 713.21 240.28 715.64 240.53 C 717.96 245.20 719.67 250.16 721.40 255.08 C 725.72 250.58 729.66 245.68 734.37 241.56 C 737.36 239.62 741.19 240.41 744.59 239.89 C 738.08 247.88 730.40 254.87 724.20 263.11 C 721.75 268.12 720.89 273.76 719.14 279.04 C 716.38 279.01 713.63 278.98 710.89 278.96 C 712.18 272.62 715.88 266.11 713.46 259.64 C 711.21 252.84 708.33 246.27 705.93 239.53 Z" />
<path fill="#111111" opacity="1.00" d=" M 762.38 240.26 C 765.04 240.12 768.00 240.07 770.74 239.97 C 772.31 253.05 774.41 266.05 776.90 278.98 C 773.86 278.93 771.15 279.00 768.20 278.95 C 767.77 275.99 767.21 272.98 766.81 270.03 C 761.23 270.02 755.67 270.02 750.11 270.05 C 748.02 273.02 746.00 276.01 743.91 278.96 C 741.14 278.93 738.39 278.89 735.64 278.86 C 744.57 266.00 753.35 253.05 762.38 240.26 M 755.57 261.70 C 758.11 261.79 763.20 261.99 765.74 262.08 C 765.01 258.28 764.37 254.46 763.63 250.67 C 760.81 254.24 758.19 257.98 755.57 261.70 Z" />
<path fill="#111111" opacity="1.00" d=" M 799.24 240.12 C 801.80 240.06 804.38 240.01 806.97 239.99 C 810.94 247.79 814.64 255.75 818.93 263.40 C 821.23 255.68 823.44 247.94 825.39 240.12 C 828.15 240.04 831.18 240.05 834.02 240.00 C 830.42 252.93 826.96 265.90 823.64 278.91 C 821.16 278.92 818.70 278.92 816.25 278.92 C 812.28 270.67 808.65 262.21 803.72 254.49 C 801.57 262.69 799.47 270.90 797.16 279.06 C 794.35 279.02 791.56 278.98 788.78 278.94 C 792.05 265.94 795.75 253.06 799.24 240.12 Z" />
<path fill="#111111" opacity="1.00" d=" M 871.28 239.87 C 880.97 240.68 893.63 237.53 900.67 246.31 C 906.15 256.48 899.68 269.97 889.98 274.98 C 881.36 280.66 870.54 278.43 860.87 279.15 C 864.16 266.01 867.52 252.89 871.28 239.87 M 877.30 247.66 C 875.56 255.61 873.58 263.51 871.74 271.44 C 877.64 270.60 885.06 271.46 889.33 266.33 C 892.33 262.28 895.19 256.53 892.43 251.62 C 889.75 246.05 881.99 248.71 877.30 247.66 Z" />
<path fill="#111111" opacity="1.00" d=" M 921.25 240.09 C 931.09 240.01 940.94 239.99 950.80 239.94 C 950.02 242.57 949.29 245.21 948.61 247.86 C 941.45 247.93 934.32 248.02 927.20 248.08 C 926.78 250.35 926.33 252.63 925.90 254.90 C 931.94 254.95 938.01 255.01 944.08 255.06 C 943.36 257.67 942.64 260.29 941.90 262.89 C 935.63 262.95 929.41 263.00 923.17 263.06 C 922.71 265.68 922.25 268.29 921.83 270.92 C 928.60 270.97 935.38 271.03 942.18 271.08 C 941.74 273.71 941.26 276.34 940.80 278.96 C 930.82 279.00 920.84 278.98 910.88 278.96 C 914.22 265.97 917.45 252.96 921.25 240.09 Z" />
<path fill="#111111" opacity="1.00" d=" M 1039.26 239.95 C 1048.31 241.27 1060.58 236.64 1067.69 244.32 C 1071.82 252.89 1064.30 261.68 1057.12 265.69 C 1058.79 270.27 1060.62 274.80 1062.25 279.40 C 1059.85 279.13 1055.03 278.58 1052.62 278.31 C 1050.59 274.77 1049.17 270.93 1047.62 267.17 C 1045.16 267.12 1042.72 267.07 1040.29 267.05 C 1039.24 271.05 1038.26 275.07 1037.18 279.06 C 1034.37 279.02 1031.57 278.98 1028.78 278.94 C 1032.06 265.89 1035.80 252.96 1039.26 239.95 M 1045.34 247.63 C 1044.55 251.51 1043.67 255.37 1042.85 259.24 C 1047.41 258.66 1052.33 259.36 1056.71 257.72 C 1058.98 255.56 1059.70 252.36 1060.85 249.56 C 1055.82 248.10 1050.49 248.09 1045.34 247.63 Z" />
</g>
<g id="#eb1c24fe">
<path fill="#eb1c24" opacity="1.00" d=" M 739.34 0.00 L 809.90 0.00 C 819.40 71.26 828.16 142.62 837.02 213.96 C 813.80 214.03 790.57 214.21 767.36 213.70 C 762.79 165.03 758.40 116.34 753.55 67.70 C 723.04 108.83 692.86 150.21 662.48 191.44 C 656.66 198.81 652.09 207.71 644.80 213.63 C 622.18 215.05 599.40 213.58 576.73 213.87 C 630.79 142.47 684.84 71.05 739.34 0.00 Z" />
</g>
</svg>
