<?xml version="1.0" encoding="UTF-8" ?>
<!DOCTYPE svg PUBLIC "-//W3C//DTD SVG 1.1//EN" "http://www.w3.org/Graphics/SVG/1.1/DTD/svg11.dtd">
<svg width="1193pt" height="296pt" viewBox="0 0 1193 296" version="1.1" xmlns="http://www.w3.org/2000/svg">
<g id="#ffffffff">
<path fill="#ffffff" opacity="1.00" d=" M 66.78 0.00 L 209.23 0.00 C 203.95 15.84 199.18 31.84 194.19 47.77 C 168.53 47.76 142.86 47.70 117.20 47.81 C 113.68 59.38 109.99 70.89 106.43 82.46 C 132.05 82.56 157.68 82.46 183.30 82.51 C 178.71 98.49 173.29 114.23 168.64 130.19 C 142.92 130.35 117.20 130.17 91.48 130.28 C 87.78 142.36 83.85 154.36 80.27 166.48 C 105.81 166.54 131.36 166.46 156.90 166.52 C 152.22 182.59 147.07 198.52 142.01 214.48 C 104.68 214.07 67.34 214.32 30.00 214.25 C 20.00 214.14 10.00 214.36 0.00 214.54 L 0.00 212.67 C 11.65 176.50 22.70 140.15 34.14 103.91 C 45.05 69.28 55.52 34.51 66.78 0.00 Z" />
<path fill="#ffffff" opacity="1.00" d=" M 223.83 0.00 L 289.51 0.00 C 271.85 55.38 254.89 111.00 237.37 166.42 C 263.20 166.63 289.04 166.38 314.87 166.55 C 310.05 182.49 304.93 198.33 300.08 214.26 C 252.36 214.30 204.64 214.07 156.92 214.51 C 178.98 142.93 201.46 71.48 223.83 0.00 Z" />
<path fill="#ffffff" opacity="1.00" d=" M 381.84 0.00 L 524.25 0.00 C 519.50 14.71 515.06 29.52 510.40 44.26 C 509.87 45.34 509.77 47.59 508.04 47.24 C 482.85 47.30 457.67 47.20 432.49 47.28 C 429.03 59.06 425.09 70.68 421.65 82.46 C 447.38 82.55 473.11 82.48 498.84 82.49 C 493.98 98.44 488.89 114.31 483.99 130.25 C 458.16 130.27 432.33 130.22 406.51 130.27 C 403.06 142.41 398.89 154.32 395.44 166.46 C 420.94 166.58 446.45 166.42 471.96 166.54 C 467.64 182.40 462.14 197.93 457.56 213.73 C 455.27 214.79 452.54 214.02 450.08 214.30 C 441.72 214.86 433.36 214.09 424.99 214.25 C 388.28 214.24 351.57 214.27 314.85 214.23 C 337.12 142.80 359.30 71.34 381.84 0.00 Z" />
<path fill="#ffffff" opacity="1.00" d=" M 541.18 0.00 L 600.28 0.00 C 586.18 43.99 572.81 88.23 559.07 132.33 C 594.73 88.56 629.36 43.94 664.82 0.00 L 724.31 0.00 C 679.13 57.26 634.07 114.63 588.92 171.92 C 578.23 185.54 567.56 199.19 556.69 212.68 C 555.28 215.02 552.26 214.06 550.03 214.28 C 524.41 214.36 498.79 213.95 473.18 214.52 C 482.21 184.88 491.66 155.37 500.66 125.72 C 513.66 83.66 526.39 41.48 541.18 0.00 Z" />
<path fill="#ffffff" opacity="1.00" d=" M 823.71 0.00 L 1035.78 0.00 C 1030.36 15.78 1025.87 31.87 1020.67 47.73 C 1002.88 47.80 985.09 47.69 967.30 47.79 C 949.77 103.23 932.68 158.81 915.19 214.26 C 893.39 214.21 871.58 214.30 849.78 214.22 C 866.84 158.67 884.31 103.24 901.67 47.78 C 877.80 47.73 853.93 47.75 830.06 47.77 C 827.91 31.85 825.82 15.92 823.71 0.00 Z" />
<path fill="#ffffff" opacity="1.00" d=" M 1049.97 0.00 L 1192.52 0.00 C 1187.44 15.88 1182.66 31.86 1177.51 47.72 C 1152.99 47.78 1128.48 47.76 1103.96 47.73 C 1102.67 47.91 1100.33 47.24 1100.11 49.13 C 1096.94 60.31 1093.13 71.30 1089.91 82.47 C 1115.40 82.55 1140.89 82.45 1166.38 82.52 C 1162.08 98.56 1156.59 114.29 1151.80 130.20 C 1126.21 130.31 1100.61 130.22 1075.02 130.25 C 1071.08 142.27 1067.36 154.36 1063.67 166.46 C 1089.22 166.56 1114.76 166.45 1140.31 166.51 C 1137.07 178.01 1133.30 189.35 1129.78 200.76 C 1128.07 205.26 1127.43 210.28 1125.04 214.44 C 1114.36 214.80 1103.68 214.11 1093.00 214.25 C 1072.33 214.25 1051.66 214.25 1031.00 214.25 C 1015.04 214.07 999.09 214.76 983.13 214.45 C 1005.18 142.90 1027.74 71.50 1049.97 0.00 Z" />
<path fill="#ffffff" opacity="1.00" d=" M 516.55 262.99 C 518.12 248.69 532.62 236.93 547.01 239.27 C 551.00 239.65 554.52 241.92 557.00 245.01 C 554.66 247.15 552.25 249.22 549.92 251.36 C 547.74 249.25 545.23 247.12 542.03 247.02 C 533.33 246.39 525.95 254.66 525.69 263.01 C 525.46 266.89 527.92 271.18 531.99 271.82 C 537.07 272.91 541.85 270.28 545.82 267.40 C 547.10 269.29 548.43 271.15 549.79 273.00 C 545.74 276.34 541.00 279.09 535.70 279.72 C 529.71 280.74 522.55 279.33 518.96 274.00 C 516.58 270.87 516.25 266.78 516.55 262.99 Z" />
<path fill="#ffffff" opacity="1.00" d=" M 612.07 260.03 C 615.27 246.77 629.37 236.76 643.00 239.39 C 646.61 239.75 649.63 241.91 652.31 244.20 C 649.92 246.50 647.43 248.70 645.05 251.01 C 642.90 248.82 640.19 247.00 637.01 246.99 C 626.87 246.37 618.06 258.01 621.49 267.57 C 624.36 273.78 632.96 273.14 637.98 270.12 C 639.31 268.42 639.28 266.00 640.00 264.00 C 637.11 264.00 634.22 264.00 631.34 263.99 C 631.98 261.52 632.66 259.07 633.20 256.58 C 638.89 256.49 644.59 256.52 650.29 256.56 C 648.80 262.26 647.34 267.98 645.71 273.64 C 641.35 277.26 635.70 279.15 630.12 279.86 C 624.49 280.51 618.03 279.31 614.30 274.68 C 610.93 270.64 610.79 264.90 612.07 260.03 Z" />
<path fill="#ffffff" opacity="1.00" d=" M 1002.37 239.57 C 1008.03 238.33 1014.60 238.93 1019.07 242.96 C 1023.01 246.36 1024.21 252.02 1023.36 257.00 C 1021.38 269.54 1009.67 279.62 997.03 280.02 C 992.28 280.05 987.14 278.77 983.95 275.03 C 980.50 271.32 979.93 265.86 980.83 261.07 C 982.96 250.49 991.91 241.86 1002.37 239.57 M 1001.37 247.56 C 995.08 249.50 990.49 255.51 989.76 261.99 C 989.38 264.98 990.48 268.23 992.84 270.16 C 995.37 272.11 998.82 272.42 1001.85 271.66 C 1008.21 270.14 1013.04 264.36 1014.16 258.03 C 1014.57 255.19 1014.24 251.95 1012.18 249.79 C 1009.56 246.75 1004.98 246.43 1001.37 247.56 Z" />
<path fill="#ffffff" opacity="1.00" d=" M 1102.37 239.57 C 1108.03 238.33 1114.60 238.93 1119.07 242.96 C 1123.01 246.36 1124.21 252.02 1123.36 257.00 C 1121.38 269.54 1109.67 279.62 1097.03 280.02 C 1092.28 280.05 1087.13 278.77 1083.95 275.03 C 1080.50 271.32 1079.93 265.86 1080.83 261.07 C 1082.96 250.50 1091.91 241.87 1102.37 239.57 M 1101.38 247.55 C 1095.08 249.49 1090.49 255.52 1089.76 261.99 C 1089.38 264.98 1090.48 268.23 1092.84 270.16 C 1095.37 272.11 1098.82 272.42 1101.85 271.66 C 1108.20 270.15 1113.04 264.37 1114.16 258.03 C 1114.57 255.20 1114.24 251.96 1112.18 249.79 C 1109.57 246.75 1104.99 246.43 1101.38 247.55 Z" />
<path fill="#ffffff" opacity="1.00" d=" M 584.36 240.35 C 586.98 239.56 589.85 240.14 592.57 240.06 C 594.61 253.05 596.84 266.01 598.86 279.00 C 595.85 279.00 592.84 279.00 589.84 279.00 C 589.55 276.01 589.13 273.04 588.73 270.06 C 583.18 269.93 577.62 270.02 572.06 270.00 C 569.95 272.93 568.37 276.29 565.91 278.94 C 563.05 279.11 560.18 278.98 557.32 278.98 C 566.38 266.14 575.33 253.21 584.36 240.35 M 577.43 262.19 C 580.83 262.31 584.24 262.26 587.66 262.27 C 587.07 258.24 586.46 254.21 585.79 250.20 C 582.85 254.09 580.08 258.10 577.43 262.19 Z" />
<path fill="#ffffff" opacity="1.00" d=" M 681.36 240.35 C 683.98 239.57 686.84 240.14 689.57 240.06 C 691.61 253.05 693.84 266.01 695.86 279.00 C 692.85 279.00 689.84 279.00 686.84 279.00 C 686.55 276.01 686.13 273.04 685.73 270.06 C 680.17 269.93 674.61 270.02 669.06 270.00 C 666.95 272.94 665.37 276.30 662.91 278.94 C 660.04 279.11 657.18 278.98 654.32 278.98 C 663.38 266.13 672.33 253.21 681.36 240.35 M 674.43 262.19 C 677.83 262.31 681.24 262.26 684.66 262.27 C 684.07 258.24 683.46 254.21 682.79 250.20 C 679.85 254.09 677.08 258.10 674.43 262.19 Z" />
<path fill="#ffffff" opacity="1.00" d=" M 708.06 240.03 C 711.44 240.29 715.17 239.35 718.35 240.46 C 720.14 245.45 721.56 250.56 723.31 255.57 C 728.01 250.49 732.50 245.22 737.05 240.00 C 740.29 240.00 743.53 239.97 746.77 240.06 C 739.80 247.95 732.49 255.55 725.61 263.52 C 724.00 268.58 722.80 273.78 721.42 278.92 C 718.52 279.03 715.63 279.00 712.74 278.99 C 713.86 274.73 715.03 270.49 716.18 266.24 C 716.44 265.01 716.98 263.69 716.42 262.46 C 713.67 254.97 710.92 247.48 708.06 240.03 Z" />
<path fill="#ffffff" opacity="1.00" d=" M 764.36 240.35 C 766.98 239.57 769.84 240.14 772.57 240.06 C 774.61 253.05 776.84 266.01 778.86 279.00 C 775.85 279.00 772.84 279.00 769.84 279.00 C 769.55 276.01 769.13 273.04 768.73 270.06 C 763.17 269.93 757.61 270.02 752.06 270.00 C 749.95 272.94 748.37 276.29 745.91 278.94 C 743.05 279.11 740.18 278.98 737.32 278.98 C 746.38 266.13 755.33 253.21 764.36 240.35 M 757.43 262.19 C 760.83 262.31 764.24 262.26 767.66 262.27 C 767.07 258.24 766.46 254.21 765.79 250.20 C 762.85 254.09 760.08 258.10 757.43 262.19 Z" />
<path fill="#ffffff" opacity="1.00" d=" M 801.12 240.00 C 803.78 240.00 806.45 240.00 809.13 239.99 C 813.36 247.68 816.41 256.03 821.12 263.43 C 823.33 255.68 825.40 247.89 827.38 240.08 C 830.24 239.97 833.11 239.99 835.98 240.00 C 832.55 252.98 828.96 265.92 825.62 278.93 C 823.14 279.01 820.66 279.01 818.20 278.97 C 814.10 270.83 810.33 262.51 805.81 254.60 C 803.56 262.68 801.34 270.79 799.31 278.94 C 796.44 279.02 793.56 279.00 790.70 278.99 C 794.18 266.00 797.70 253.01 801.12 240.00 Z" />
<path fill="#ffffff" opacity="1.00" d=" M 873.12 240.00 C 879.41 240.15 885.73 239.67 892.01 240.26 C 898.51 240.93 904.63 246.17 904.74 253.00 C 905.31 266.45 893.17 278.09 880.10 278.91 C 874.30 279.13 868.50 278.94 862.70 278.99 C 866.19 265.99 869.70 253.01 873.12 240.00 M 879.56 248.39 C 877.45 255.98 875.45 263.61 873.44 271.23 C 876.58 271.21 879.75 271.49 882.88 271.06 C 890.60 269.76 896.51 261.74 895.36 254.00 C 894.65 249.71 890.08 247.33 886.03 247.71 C 883.95 248.05 881.18 246.94 879.56 248.39 Z" />
<path fill="#ffffff" opacity="1.00" d=" M 923.12 240.00 C 932.97 240.01 942.81 239.98 952.66 240.02 C 952.03 242.59 951.33 245.14 950.69 247.70 C 943.82 247.81 936.95 247.63 930.08 247.78 C 928.54 249.90 928.50 252.78 927.66 255.23 C 933.80 255.30 939.94 255.27 946.08 255.25 C 945.41 257.84 944.72 260.42 944.06 263.01 C 937.87 263.04 931.67 262.90 925.48 263.09 C 924.80 265.81 924.09 268.53 923.33 271.23 C 930.44 271.35 937.55 271.15 944.66 271.35 C 943.91 273.86 943.21 276.38 942.61 278.93 C 932.64 279.08 922.67 278.97 912.70 278.99 C 916.19 265.99 919.70 253.01 923.12 240.00 Z" />
<path fill="#ffffff" opacity="1.00" d=" M 1041.12 240.00 C 1047.75 240.07 1054.38 239.87 1061.01 240.08 C 1065.16 240.29 1070.12 242.43 1070.78 247.03 C 1071.91 255.01 1066.21 262.78 1058.75 265.29 C 1060.63 269.88 1062.64 274.42 1064.57 278.99 C 1061.17 279.00 1057.78 279.06 1054.40 278.89 C 1052.86 275.01 1051.34 271.11 1049.59 267.32 C 1047.66 266.03 1044.93 267.04 1042.71 266.70 C 1041.48 270.74 1040.40 274.82 1039.42 278.92 C 1036.51 279.03 1033.60 279.00 1030.70 278.99 C 1034.19 266.00 1037.70 253.01 1041.12 240.00 M 1044.68 258.98 C 1049.64 258.57 1055.60 260.42 1059.67 256.68 C 1061.77 254.58 1063.10 249.78 1059.65 248.31 C 1055.94 247.19 1051.94 247.86 1048.12 247.78 C 1046.20 251.12 1045.97 255.32 1044.68 258.98 Z" />
</g>
<g id="#ec1c24ff">
<path fill="#ec1c24" opacity="1.00" d=" M 739.22 0.00 L 810.01 0.00 C 819.18 71.31 828.11 142.65 837.01 214.00 C 813.82 213.82 790.62 214.38 767.45 213.67 C 763.07 165.01 758.46 116.37 753.71 67.74 C 740.85 84.00 729.07 101.09 716.66 117.69 C 693.05 149.77 669.49 181.88 645.92 213.99 C 622.84 213.98 599.75 214.06 576.67 213.95 C 584.28 203.51 592.28 193.36 600.00 183.01 C 646.41 122.00 692.65 60.87 739.22 0.00 Z" />
</g>
</svg>
